<?xml version="1.0" standalone="no"?>
<!DOCTYPE svg PUBLIC "-//W3C//DTD SVG 20010904//EN"
 "http://www.w3.org/TR/2001/REC-SVG-20010904/DTD/svg10.dtd">
<svg version="1.0" xmlns="http://www.w3.org/2000/svg"
 width="256.000000pt" height="256.000000pt" viewBox="0 0 256.000000 256.000000"
 preserveAspectRatio="xMidYMid meet">

<g transform="translate(0.000000,256.000000) scale(0.100000,-0.100000)"
fill="#000000" stroke="none">
<path d="M1056 2384 c-189 -37 -384 -133 -522 -257 l-51 -46 -69 70 c-37 38
-72 69 -76 69 -5 0 -7 -96 -6 -212 l3 -213 220 -3 220 -2 -75 75 -75 76 50 44
c181 158 458 245 697 217 206 -24 391 -109 536 -246 200 -190 296 -408 296
-676 0 -262 -95 -482 -285 -666 -41 -39 -96 -85 -122 -103 -119 -81 -290 -140
-449 -157 l-68 -6 0 -96 0 -95 98 6 c385 21 758 282 926 648 38 82 69 181 87
279 16 84 16 296 0 380 -88 470 -440 826 -904 915 -98 19 -336 18 -431 -1z"/>
<path d="M1130 1905 c-282 -69 -490 -334 -490 -625 0 -268 178 -518 432 -607
56 -20 99 -27 183 -31 132 -5 202 9 320 67 191 94 313 268 346 493 29 197 -55
420 -209 558 -64 58 -188 122 -277 145 -72 18 -229 18 -305 0z m320 -405 c0
-29 -1 -30 -50 -30 -56 0 -55 1 -38 -35 9 -20 18 -25 50 -25 34 0 38 -3 38
-25 0 -22 -4 -25 -39 -25 -32 0 -41 -4 -46 -22 -11 -37 -66 -87 -102 -94 -18
-3 -33 -8 -33 -11 0 -3 27 -35 61 -71 34 -37 70 -79 81 -94 l19 -28 -58 0 -58
1 -82 97 c-65 76 -83 104 -83 128 0 31 1 32 55 36 51 4 95 27 95 50 0 4 -34 8
-76 8 -72 0 -75 1 -72 23 3 20 10 22 77 27 66 4 72 7 57 19 -10 8 -44 17 -77
19 -59 4 -59 4 -59 37 0 17 3 35 7 38 3 4 80 7 170 7 l163 0 0 -30z"/>
</g>
</svg>
