<?xml version="1.0" standalone="no"?>
<!DOCTYPE svg PUBLIC "-//W3C//DTD SVG 20010904//EN"
 "http://www.w3.org/TR/2001/REC-SVG-20010904/DTD/svg10.dtd">
<svg version="1.0" xmlns="http://www.w3.org/2000/svg"
 width="256.000000pt" height="256.000000pt" viewBox="0 0 256.000000 256.000000"
 preserveAspectRatio="xMidYMid meet">

<g transform="translate(0.000000,256.000000) scale(0.100000,-0.100000)"
fill="#000000" stroke="none">
<path d="M1115 2390 c-237 -37 -456 -149 -626 -319 -146 -145 -241 -312 -297
-520 -23 -86 -26 -114 -26 -271 0 -157 3 -185 26 -271 56 -208 151 -375 297
-520 145 -146 313 -241 520 -297 85 -22 116 -25 266 -26 144 0 184 3 258 22
431 108 753 437 844 862 24 117 24 343 0 460 -91 423 -415 756 -838 860 -97
24 -327 35 -424 20z m-18 -623 c53 -28 103 -88 120 -146 42 -146 -71 -291
-227 -291 -50 0 -131 41 -167 84 -126 153 -8 388 188 373 31 -3 69 -12 86 -20z
m547 -60 l29 -24 -343 -439 c-189 -241 -344 -441 -346 -443 -2 -2 -22 11 -46
30 -24 18 -44 34 -46 35 -3 2 635 822 671 861 22 24 30 22 81 -20z m21 -509
c140 -73 167 -258 54 -365 -146 -139 -383 -38 -383 162 0 171 179 281 329 203z"/>
<path d="M927 1647 c-83 -67 -35 -197 73 -197 34 0 48 6 76 34 28 28 34 42 34
76 0 34 -6 48 -34 76 -28 28 -41 34 -77 34 -31 0 -52 -7 -72 -23z"/>
<path d="M1508 1095 c-32 -18 -58 -63 -58 -100 0 -96 125 -150 189 -81 47 50
45 124 -7 169 -28 25 -90 31 -124 12z"/>
</g>
</svg>
