<?xml version="1.0" standalone="no"?>
<!DOCTYPE svg PUBLIC "-//W3C//DTD SVG 20010904//EN"
 "http://www.w3.org/TR/2001/REC-SVG-20010904/DTD/svg10.dtd">
<svg version="1.0" xmlns="http://www.w3.org/2000/svg"
 width="256.000000pt" height="256.000000pt" viewBox="0 0 256.000000 256.000000"
 preserveAspectRatio="xMidYMid meet">

<g transform="translate(0.000000,256.000000) scale(0.100000,-0.100000)"
fill="#000000" stroke="none">
<path d="M1113 2325 l-161 -155 -236 0 -236 0 0 -238 0 -238 -61 -59 c-33 -33
-105 -108 -159 -166 l-99 -106 159 -165 160 -166 0 -211 0 -211 233 0 233 0
163 -180 c90 -99 167 -180 171 -180 4 0 81 81 171 180 l163 180 213 0 213 0 0
213 0 213 180 163 c99 90 180 164 180 166 0 1 -81 76 -180 166 l-180 164 0
237 0 238 -216 0 -216 0 -161 155 c-89 85 -164 155 -167 155 -3 0 -78 -70
-167 -155z m312 -1005 l-310 -310 -145 145 -145 145 48 47 47 48 100 -100 100
-100 263 263 262 262 45 -45 45 -45 -310 -310z"/>
</g>
</svg>
