<?xml version="1.0" standalone="no"?>
<!DOCTYPE svg PUBLIC "-//W3C//DTD SVG 20010904//EN"
 "http://www.w3.org/TR/2001/REC-SVG-20010904/DTD/svg10.dtd">
<svg version="1.0" xmlns="http://www.w3.org/2000/svg"
 width="128.000000pt" height="128.000000pt" viewBox="0 0 128.000000 128.000000"
 preserveAspectRatio="xMidYMid meet">

<g transform="translate(0.000000,128.000000) scale(0.100000,-0.100000)"
fill="#000000" stroke="none">
<path d="M520 1195 c-428 -97 -583 -626 -275 -939 213 -215 575 -216 790 -1
180 181 214 481 77 690 -105 161 -259 250 -447 260 -50 3 -104 -1 -145 -10z
m231 -253 c76 -39 114 -102 114 -187 0 -130 -95 -215 -241 -215 l-74 0 0 -105
0 -105 -61 0 -61 0 4 238 c3 144 9 247 15 263 19 43 75 101 118 120 59 27 123
24 186 -9z"/>
<path d="M610 842 c-46 -22 -60 -53 -60 -131 l0 -64 72 5 c65 5 75 9 100 37
38 42 38 90 1 130 -36 38 -70 45 -113 23z"/>
</g>
</svg>
