<?xml version="1.0" standalone="no"?>
<!DOCTYPE svg PUBLIC "-//W3C//DTD SVG 20010904//EN"
 "http://www.w3.org/TR/2001/REC-SVG-20010904/DTD/svg10.dtd">
<svg version="1.0" xmlns="http://www.w3.org/2000/svg"
 width="369.000000pt" height="270.000000pt" viewBox="0 0 369.000000 270.000000"
 preserveAspectRatio="xMidYMid meet">

<g transform="translate(0.000000,270.000000) scale(0.100000,-0.100000)"
fill="#0c5b50" stroke="none">
<path d="M1402 2578 c-448 -794 -1388 -2469 -1396 -2489 -20 -55 48 -108 97
-76 12 8 177 290 382 655 l360 642 303 0 302 0 0 -625 0 -626 25 -24 24 -25
353 0 c661 0 852 27 1103 152 372 187 622 516 712 938 25 118 25 382 0 500
-90 422 -340 751 -712 938 -249 124 -440 153 -1082 159 l-401 4 -70 -123z
m866 -24 l22 -6 0 -549 c0 -427 -3 -550 -12 -556 -18 -11 -354 -16 -535 -8
l-153 7 0 559 0 559 328 0 c180 0 337 -3 350 -6z m542 -101 c351 -144 607
-438 707 -810 24 -90 27 -114 27 -293 0 -179 -3 -203 -27 -293 -124 -462 -492
-801 -957 -881 -51 -9 -102 -16 -112 -16 -17 0 -18 26 -18 594 l0 595 63 32
c40 22 94 65 153 124 75 75 99 106 132 176 59 123 76 194 76 329 1 170 -39
286 -144 425 l-50 67 32 -7 c18 -4 71 -23 118 -42z m-324 8 c230 -168 300
-470 167 -723 -41 -79 -106 -156 -169 -198 -23 -17 -45 -30 -48 -30 -3 0 -6
221 -6 490 0 270 4 490 8 490 5 0 27 -13 48 -29z m-1036 -551 l0 -460 -260 0
c-143 0 -260 2 -260 5 0 7 512 915 516 915 2 0 4 -207 4 -460z m838 -1338 l-3
-248 -329 489 -329 489 279 -6 c154 -4 302 -3 329 1 l50 8 3 -242 c1 -133 1
-354 0 -491z m-376 61 c172 -257 315 -471 316 -475 2 -5 -141 -8 -317 -8
l-321 0 0 475 c0 261 2 475 5 475 2 0 145 -210 317 -467z"/>
</g>
</svg>
